<?xml version="1.0" standalone="no"?>
<!DOCTYPE svg PUBLIC "-//W3C//DTD SVG 20010904//EN"
 "http://www.w3.org/TR/2001/REC-SVG-20010904/DTD/svg10.dtd">
<svg version="1.0" xmlns="http://www.w3.org/2000/svg"
 width="512.000000pt" height="512.000000pt" viewBox="0 0 512.000000 512.000000"
 preserveAspectRatio="xMidYMid meet">

<g transform="translate(0.000000,512.000000) scale(0.100000,-0.100000)"
fill="#000000" stroke="none">
<path d="M502 3840 c-115 -30 -206 -84 -298 -175 -89 -87 -138 -167 -175 -280
-21 -65 -23 -90 -27 -373 -4 -350 4 -414 68 -547 85 -176 244 -307 440 -361
55 -16 107 -18 346 -19 263 0 283 1 303 19 14 13 21 31 21 57 0 65 -8 67 -320
72 -247 3 -282 6 -341 25 -176 58 -312 205 -354 384 -21 91 -21 576 0 667 41
173 161 304 349 380 37 14 186 16 1622 21 1538 5 1582 6 1603 24 14 13 21 31
21 57 0 75 138 69 -1615 68 -1512 0 -1573 -1 -1643 -19z"/>
<path d="M3992 3844 c-30 -21 -31 -83 -1 -110 19 -17 44 -19 298 -24 260 -5
280 -7 336 -29 168 -66 290 -203 330 -372 21 -91 21 -576 0 -667 -42 -178
-178 -325 -354 -384 -66 -23 -71 -23 -849 -26 l-783 -3 -261 86 c-292 97 -305
99 -357 39 -30 -33 -36 -54 -32 -101 l2 -23 -443 0 c-500 0 -488 2 -488 -69 0
-26 7 -44 21 -57 20 -18 47 -19 492 -24 l470 -5 14 -39 c24 -72 58 -93 111
-70 48 20 50 52 14 163 -17 52 -30 96 -28 98 1 2 175 -53 385 -123 211 -69
381 -127 379 -129 -1 -2 -77 -31 -168 -65 -99 -37 -175 -71 -191 -86 -18 -17
-47 -80 -89 -197 l-64 -171 -45 136 c-50 148 -69 178 -113 178 -29 0 -78 -38
-78 -61 0 -22 119 -378 134 -402 37 -55 126 -64 178 -18 27 24 46 64 107 229
l75 200 194 73 c107 40 207 83 223 96 50 43 57 126 13 174 -15 17 6 18 557 22
512 3 581 5 634 21 195 57 351 187 435 361 64 133 72 197 68 547 -4 298 -4
304 -31 384 -72 215 -257 389 -473 444 -67 17 -111 20 -338 20 -221 0 -265 -2
-284 -16z"/>
<path d="M623 3286 c-150 -49 -233 -162 -233 -320 0 -61 5 -82 30 -134 35 -69
92 -125 159 -156 66 -30 199 -30 257 1 100 53 134 128 78 172 -37 29 -67 26
-109 -11 -48 -42 -114 -49 -172 -19 -59 29 -86 73 -91 142 -5 70 23 128 78
162 44 28 134 30 173 4 33 -21 76 -22 105 -1 28 19 31 83 4 107 -58 53 -199
79 -279 53z"/>
<path d="M1054 3290 c-41 -16 -45 -51 -42 -334 4 -328 -8 -306 163 -306 134 0
159 12 159 75 0 55 -29 75 -110 75 l-64 0 0 229 0 230 -26 20 c-28 22 -46 25
-80 11z"/>
<path d="M1436 3279 l-26 -20 0 -283 c0 -282 0 -283 23 -304 29 -27 67 -28 98
-3 24 19 24 19 27 287 3 288 -1 318 -45 335 -35 13 -47 11 -77 -12z"/>
<path d="M1877 3290 c-90 -23 -169 -87 -215 -175 -23 -43 -27 -62 -27 -140 0
-106 22 -163 90 -230 66 -67 125 -90 225 -90 95 0 138 15 196 70 44 42 47 93
8 124 -36 29 -51 27 -108 -14 -59 -42 -108 -46 -173 -14 -63 31 -97 92 -91
165 5 61 26 96 78 131 48 34 97 39 150 18 25 -9 61 -19 81 -22 30 -4 40 -1 58
22 27 35 27 55 -1 90 -43 55 -180 88 -271 65z"/>
<path d="M2286 3279 l-26 -20 0 -285 c0 -271 1 -285 20 -304 25 -25 74 -26 99
-1 19 19 27 49 33 116 3 29 3 29 90 -53 97 -91 126 -101 166 -59 44 47 33 71
-94 196 l-116 115 107 101 c93 88 106 104 105 133 0 40 -31 72 -70 72 -22 0
-48 -17 -107 -69 l-78 -70 -8 52 c-5 37 -14 58 -33 75 -31 27 -54 28 -88 1z"/>
<path d="M2915 3275 l-25 -24 0 -276 0 -276 25 -24 c31 -32 74 -33 103 -2 20
21 22 34 22 130 l0 107 100 0 100 0 0 -108 c0 -100 2 -110 23 -130 29 -27 67
-28 98 -3 24 19 24 19 27 287 3 286 0 313 -44 333 -35 16 -48 14 -78 -10 -25
-20 -26 -24 -26 -120 l0 -99 -100 0 -100 0 0 95 c0 88 -2 98 -25 120 -13 14
-36 25 -50 25 -14 0 -37 -11 -50 -25z"/>
<path d="M3503 3290 c-12 -5 -26 -18 -32 -29 -7 -12 -11 -119 -11 -295 l0
-275 26 -20 c24 -19 40 -21 145 -21 67 0 129 5 143 11 35 16 50 63 31 99 -18
36 -31 40 -121 40 l-74 0 0 50 0 50 74 0 c69 0 76 2 95 26 28 35 26 69 -4 99
-21 22 -33 25 -95 25 l-70 0 0 50 0 50 83 0 c71 0 87 3 102 20 25 28 23 76 -4
103 -19 20 -33 22 -144 24 -67 2 -132 -2 -144 -7z"/>
<path d="M3918 3280 l-28 -21 0 -285 c0 -271 1 -285 20 -304 40 -40 112 -15
125 42 2 13 6 43 7 67 l3 44 70 -82 c39 -44 81 -84 94 -87 35 -10 74 8 90 41
13 26 12 32 -5 62 -10 17 -41 57 -69 88 -46 53 -48 58 -30 68 11 5 36 27 57
48 87 90 62 240 -50 307 -42 24 -59 27 -152 30 -96 4 -107 2 -132 -18z m217
-155 c30 -29 31 -39 5 -65 -13 -13 -33 -20 -60 -20 l-40 0 0 55 0 55 35 0 c25
0 44 -8 60 -25z"/>
<path d="M4430 3293 c-50 -20 -50 -17 -50 -319 l0 -283 26 -20 c24 -19 40 -21
149 -21 109 0 125 2 149 21 33 26 36 79 6 109 -17 17 -33 20 -100 20 l-80 0 0
50 0 50 70 0 c62 0 74 3 95 25 14 13 25 36 25 50 0 14 -11 37 -25 50 -21 22
-33 25 -95 25 l-70 0 0 50 0 50 78 0 c97 0 122 14 122 69 0 65 -22 76 -164 78
-66 1 -128 0 -136 -4z"/>
</g>
</svg>
